<?xml version="1.0" standalone="no"?><!DOCTYPE svg PUBLIC "-//W3C//DTD SVG 1.1//EN"
  "http://www.w3.org/Graphics/SVG/1.1/DTD/svg11.dtd">
<svg class="icon" width="64px" height="63.81px" viewBox="0 0 1027 1024" version="1.1"
     xmlns="http://www.w3.org/2000/svg">
  <path
    d="M871.08137158 156.29320654c-64.48239239-64.48239239-168.58141892-64.48239239-233.06381131 0-64.48239239-64.48239239-168.58141892-64.48239239-233.06381049 0s-64.48239239 168.58141892 0 233.06381131l212.83404072 212.83404071c10.95779197 10.95779197 28.65884134 10.95779197 39.6166333 0l212.83404071-212.83404071c64.90384634-64.48239239 64.90384634-169.00287204 0.84290707-233.06381131z"
    fill="#ffffff"/>
  <path
    d="M799.8557226 129.32018018C881.19625647 182.42332666 892.99695633 298.74450535 746.33112216 433.18818652c-67.43256757 61.95367117-128.12187772 168.58141892-128.12187853 168.58141892 10.95779197 10.95779197 28.65884134 10.95779197 39.61663329 0l212.83404154-212.83404072c64.48239239-64.06093927 45.93843677-228.84927594-70.80419587-259.61538454z"
    fill="#ffffff"/>
  <path
    d="M631.69575763 168.0939064c-64.48239239-64.48239239-168.58141892-82.6048949-232.64235819-18.1225025-64.06093927 64.06093927-54.78896063 190.07554972 29.50174841 242.33578913 2.52872122 1.68581414-57.7391358-128.96478562 12.22215298-199.76898149 57.7391358-59.00349682 145.8229271-44.67407575 190.91845679-24.44430514z"
    fill="#ffffff"/>
  <path
    d="M638.01756028 627.05681848c-11.80069904 0-23.17994495-4.63598932-31.60901569-13.06506006L393.15304993 401.15771689c-70.80419587-70.80419587-70.80419587-185.86101434 0-256.66520939 67.01111362-67.01111362 173.63886136-70.38274192 244.86451035-10.95779196 71.22564899-59.8464039 177.85339673-56.05332166 244.86451116 10.95779196 34.13773691 34.13773691 53.10314648 79.65472056 53.10314649 128.12187772s-18.96540957 93.9841408-53.10314649 128.54333167l-212.83404154 212.83404153c-8.85052469 8.42907074-20.22977061 13.06506006-32.03046962 13.06506006zM521.69638159 124.68419085c-37.93081915 0-75.86163831 14.32942026-104.52047964 43.40971555-27.81593427 27.81593427-43.40971554 64.90384634-43.40971472 104.52047882s15.59378128 76.70454538 43.40971472 104.52047965l212.83404153 212.83404153c4.21453537 4.21453537 11.37924592 4.21453537 16.0152344 0l212.83404072-212.83404153c27.81593427-27.81593427 43.40971554-65.32529947 43.40971554-104.52047965 0-39.6166333-15.17232733-76.70454538-42.9882616-104.52047882-57.7391358-57.7391358-151.30182349-57.7391358-209.04095928 0-6.74325659 6.74325659-17.27959543 6.74325659-24.02285203 0A147.80375876 147.80375876 0 0 0 521.69638159 124.68419085z"
    fill="#2c2c2c"/>
  <path
    d="M758.55327515 343.84003503c-81.3405347-81.3405347-212.41258758-81.3405347-293.75312229 0-81.3405347-81.3405347-212.41258758-81.3405347-293.75312146 0s-81.3405347 212.41258758 0 293.75312146l268.46590842 268.46590925c13.90796713 13.90796713 36.245005 13.90796713 50.15297214 0l268.46590923-268.46590925c81.3405347-81.3405347 81.3405347-212.8340407 0.42145396-293.75312146z"
    fill="#9769ff"/>
  <path
    d="M668.7836697 310.12375125c102.41321154 67.01111362 117.5855397 213.67694778-67.43256755 383.10127377-85.13361612 77.9689064-161.8381615 212.41258758-161.83816233 212.41258758 13.90796713 13.90796713 36.245005 13.90796713 50.15297214 1e-8l268.46590923-268.46590924c81.3405347-80.91908075 58.16058975-288.69567901-89.34815149-327.04795212z"
    fill="#9769ff"/>
  <path
    d="M456.37108213 353.11201285c-81.3405347-81.3405347-212.41258758-99.04158325-293.75312229-17.70104855-80.91908075 80.91908075-69.11838172 239.38561477 37.08791208 305.97527444 3.3716283 2.10726809-72.91146313-162.68106858 15.17232816-252.02922089 73.75437103-74.17582417 185.01810728-61.53221805 241.49288205-36.245005z"
    fill="#ffffff"/>
  <path
    d="M464.37869973 933.45354605c-13.90796713 0-26.9730272-5.47889639-37.08791208-15.17232733L158.82487842 649.81530948C116.6795239 606.82704788 93.078125 550.3522731 93.078125 490.5058692c0-59.8464039 23.6013989-116.32117868 65.74675342-158.88798715 42.56680847-42.56680847 99.04158325-65.74675342 158.88798715-65.74675342 54.3675075 0 106.20629379 19.38686352 147.08728729 54.78896145 40.88099433-35.40209793 92.29832666-54.78896063 147.08728813-54.78896145 59.8464039 0 116.32117868 23.6013989 158.88798633 65.74675342 42.14535452 42.14535452 65.74675342 98.62013013 65.7467534 158.88798714 0 59.8464039-23.6013989 116.32117868-65.74675341 158.88798717l-268.46590842 268.46590923c-10.53633884 10.11488489-23.6013989 15.59378128-37.93081916 15.59378046zM317.71286557 299.58741242c-50.99587921 0-99.04158325 19.80831665-134.86513513 56.05332165C146.60272543 391.88573907 126.79440879 439.50998999 126.79440879 490.5058692c0 50.99587921 19.80831665 99.04158325 56.05332165 134.86513512l268.46590923 268.46590843c7.16471054 7.16471054 18.96540957 7.16471054 26.1301193 0L746.33112216 625.79245746c36.245005-36.245005 56.05332166-84.29070904 56.05332166-135.28658826 0-50.99587921-19.80831665-99.04158325-55.63186853-134.86513513-36.245005-36.245005-83.86925592-56.05332166-134.86513431-56.05332165s-99.04158325 19.80831665-134.86513513 56.05332165c-3.3716283 3.3716283-7.58616367 5.05744245-11.80069903 5.05744244s-8.85052469-1.68581414-11.80069987-5.05744244c-36.66645813-36.245005-84.71216299-56.05332166-135.70804138-56.05332165zM774.9899635 831.0403345c-7.16471054 0-12.64360611-5.47889639-12.64360693-12.64360611s5.47889639-12.64360611 12.64360693-12.64360611c21.07267767 0 37.93081915-16.85814148 37.93081916-37.93081997 0-7.16471054 5.47889639-12.64360611 12.64360611-12.64360611s12.64360611 5.47889639 12.6436061 12.64360611c0 34.55919086-28.2373874 63.2180322-63.21803137 63.21803219zM800.27717573 888.35801718c-7.16471054 0-12.64360611-5.47889639-12.64360612-12.64360693s5.47889639-12.64360611 12.64360611-12.64360612c38.77372623 0 69.96128879-31.60901569 69.96128879-69.96128878 0-7.16471054 5.47889639-12.64360611 12.64360693-12.64360611s12.64360611 5.47889639 12.64360611 12.64360611c0 52.26023941-42.56680847 95.24850183-95.24850183 95.24850183zM160.08923862 214.87524942c-7.16471054 0-12.64360611-5.47889639-12.64360612-12.64360611 0-34.98064399 28.2373874-63.2180322 63.2180322-63.2180322 7.16471054 0 12.64360611 5.47889639 12.64360611 12.64360694s-5.47889639 12.64360611-12.64360611 12.64360612c-21.07267767 0-37.93081915 16.85814148-37.93081914 37.93081914 0 7.16471054-5.47889639 12.64360611-12.64360694 12.64360611zM102.77155677 198.01710793c-7.16471054 0-12.64360611-5.47889639-12.64360695-12.6436061 0-52.68169336 42.56680847-95.24850183 95.24850184-95.24850183 7.16471054 0 12.64360611 5.47889639 12.64360611 12.64360611s-5.47889639 12.64360611-12.64360611 12.64360693c-38.77372623 0-69.96128879 31.60901569-69.96128879 69.96128879 0 7.16471054-5.47889639 12.64360611-12.6436061 12.6436061z"
    fill="#2c2c2c"/>
</svg>
